<?xml version="1.0" encoding="UTF-8" standalone="no"?>
<!-- Created with Inkscape (http://www.inkscape.org/) -->

<svg
   xmlns:dc="http://purl.org/dc/elements/1.1/"
   xmlns:cc="http://creativecommons.org/ns#"
   xmlns:rdf="http://www.w3.org/1999/02/22-rdf-syntax-ns#"
   xmlns:svg="http://www.w3.org/2000/svg"
   xmlns="http://www.w3.org/2000/svg"
   xmlns:sodipodi="http://sodipodi.sourceforge.net/DTD/sodipodi-0.dtd"
   xmlns:inkscape="http://www.inkscape.org/namespaces/inkscape"
   width="800"
   height="800"
   id="svg4039"
   version="1.1"
   inkscape:version="0.48.2 r9819"
   sodipodi:docname="quatrefoil.svg">
  <defs
     id="defs4041" />
  <sodipodi:namedview
     id="base"
     pagecolor="#ffffff"
     bordercolor="#666666"
     borderopacity="1.0"
     inkscape:pageopacity="0.0"
     inkscape:pageshadow="2"
     inkscape:zoom="0.49497475"
     inkscape:cx="203.45169"
     inkscape:cy="381.30267"
     inkscape:document-units="px"
     inkscape:current-layer="layer1"
     showgrid="false"
     inkscape:window-width="1440"
     inkscape:window-height="845"
     inkscape:window-x="-2"
     inkscape:window-y="-3"
     inkscape:window-maximized="1"
     fit-margin-top="0"
     fit-margin-left="0"
     fit-margin-right="0"
     fit-margin-bottom="0" />
  <metadata
     id="metadata4044">
    <rdf:RDF>
      <cc:Work
         rdf:about="">
        <dc:format>image/svg+xml</dc:format>
        <dc:type
           rdf:resource="http://purl.org/dc/dcmitype/StillImage" />
        <dc:title></dc:title>
      </cc:Work>
    </rdf:RDF>
  </metadata>
  <g
     inkscape:label="Layer 1"
     inkscape:groupmode="layer"
     id="layer1"
     transform="translate(0,-252.375)">
    <path
       style="fill:#000000;fill-opacity:1;stroke:#000000;stroke-width:0;stroke-miterlimit:4;stroke-opacity:1;stroke-dasharray:none"
       d="m 178.5625,252.375 c 0.0199,2.42182 -0.0781,4.85529 -0.3125,7.28125 -3.47092,46.77749 -56.48888,83.32841 -101.3125,67.34375 0.14705,6.65537 0.71497,13.28996 1.03125,19.9375 4.533458,40.63628 -29.96479,79.05101 -69.6875,83.28125 C 5.5068199,430.6158 2.75117,430.8308 0,430.875 l 0,21.5 0,21.5 c 2.75117,0.0442 5.5068199,0.2592 8.28125,0.65625 39.72271,4.23024 74.220958,42.64495 69.6875,83.28125 -0.31628,6.6475 -0.8842,13.2821 -1.03125,19.9375 44.82362,-15.9847 97.84158,20.56625 101.3125,67.34375 0.23444,2.426 0.33242,4.85945 0.3125,7.28125 0.0199,2.42182 -0.0781,4.85529 -0.3125,7.28125 -3.47092,46.77749 -56.48888,83.32841 -101.3125,67.34375 0.14705,6.65537 0.71497,13.28996 1.03125,19.9375 4.533458,40.63628 -29.96479,79.05101 -69.6875,83.28125 C 5.50682,830.6158 2.75117,830.8308 0,830.875 l 0,21.5 0,21.5 c 2.75117,0.0442 5.50682,0.2592 8.28125,0.65625 39.72271,4.23024 74.220958,42.64497 69.6875,83.28125 -0.31628,6.64754 -0.8842,13.28213 -1.03125,19.9375 44.82362,-15.98466 97.84158,20.56619 101.3125,67.3438 0.23444,2.4257 0.33242,4.8594 0.3125,7.2812 l 21.4375,0 21.4375,0 c -0.0199,-2.4218 0.0781,-4.8554 0.3125,-7.2812 3.47092,-46.77761 56.48888,-83.32846 101.3125,-67.3438 -0.14705,-6.65537 -0.71497,-13.28996 -1.03125,-19.9375 -4.53346,-40.63628 29.96479,-79.05101 69.6875,-83.28125 2.77443,-0.39705 5.53008,-0.61205 8.28125,-0.65625 2.75117,0.0442 5.50682,0.2592 8.28125,0.65625 39.72271,4.23024 74.22096,42.64497 69.6875,83.28125 -0.31628,6.64754 -0.8842,13.28213 -1.03125,19.9375 44.82362,-15.98466 97.84158,20.56617 101.3125,67.3438 0.23444,2.4257 0.33242,4.8594 0.3125,7.2812 l 21.4375,0 21.4375,0 c -0.0199,-2.4218 0.0781,-4.8554 0.3125,-7.2812 3.47092,-46.77763 56.48888,-83.32846 101.3125,-67.3438 -0.14705,-6.65537 -0.71497,-13.28996 -1.03125,-19.9375 -4.53346,-40.63628 29.96479,-79.05101 69.6875,-83.28125 2.77443,-0.39705 5.53008,-0.61205 8.28125,-0.65625 l 0,-21.5 0,-21.5 c -2.75117,-0.0442 -5.50682,-0.2592 -8.28125,-0.65625 -39.72271,-4.23024 -74.22096,-42.64497 -69.6875,-83.28125 0.31628,-6.64754 0.8842,-13.28213 1.03125,-19.9375 -44.82362,15.98466 -97.84158,-20.56626 -101.3125,-67.34375 -0.23444,-2.42596 -0.33242,-4.85943 -0.3125,-7.28125 -0.0199,-2.4218 0.0781,-4.85525 0.3125,-7.28125 3.47092,-46.7775 56.48888,-83.32835 101.3125,-67.34375 -0.14705,-6.6553 -0.71497,-13.2899 -1.03125,-19.9375 -4.53346,-40.6362 29.96479,-79.05101 69.6875,-83.28125 2.77443,-0.39705 5.53008,-0.61205 8.28125,-0.65625 l 0,-21.5 0,-21.5 c -2.75117,-0.0442 -5.50682,-0.2592 -8.28125,-0.65625 -39.72271,-4.23024 -74.22096,-42.64497 -69.6875,-83.28125 0.31628,-6.64754 0.8842,-13.28213 1.03125,-19.9375 -44.82362,15.98466 -97.84158,-20.56626 -101.3125,-67.34375 -0.23444,-2.42596 -0.33242,-4.85943 -0.3125,-7.28125 l -21.4375,0 -21.4375,0 c 0.0199,2.42182 -0.0781,4.85529 -0.3125,7.28125 -3.47092,46.77749 -56.48888,83.32841 -101.3125,67.34375 0.14705,6.65537 0.71497,13.28996 1.03125,19.9375 4.53346,40.63628 -29.96479,79.05101 -69.6875,83.28125 -2.77443,0.39705 -5.53008,0.61205 -8.28125,0.65625 -2.75117,-0.0442 -5.50682,-0.2592 -8.28125,-0.65625 -39.72271,-4.23024 -74.22096,-42.64497 -69.6875,-83.28125 0.31628,-6.64754 0.8842,-13.28213 1.03125,-19.9375 -44.82362,15.98466 -97.84158,-20.56626 -101.3125,-67.34375 -0.23444,-2.42596 -0.33242,-4.85943 -0.3125,-7.28125 l -21.4375,0 -21.4375,0 z M 200,321.96875 c 18.54315,26.4792 47.07271,45.98229 79.4375,50.6875 5.03654,32.32538 24.61164,61.03912 51.09375,79.71875 -26.48211,18.67963 -46.05721,47.39335 -51.09375,79.71875 -32.36479,4.7052 -60.89435,24.2083 -79.4375,50.6875 -18.54315,-26.4792 -47.07271,-45.9823 -79.4375,-50.6875 -5.03654,-32.3254 -24.611638,-61.03912 -51.09375,-79.71875 26.482112,-18.67963 46.05721,-47.39337 51.09375,-79.71875 32.36479,-4.70521 60.89435,-24.2083 79.4375,-50.6875 z m 400,0 c 18.54315,26.4792 47.07271,45.98229 79.4375,50.6875 5.03654,32.32538 24.61164,61.03912 51.09375,79.71875 -26.48211,18.67963 -46.05721,47.39335 -51.09375,79.71875 -32.36479,4.7052 -60.89435,24.2083 -79.4375,50.6875 -18.54315,-26.4792 -47.07271,-45.9823 -79.4375,-50.6875 -5.03654,-32.3254 -24.61164,-61.03912 -51.09375,-79.71875 26.48211,-18.67963 46.05721,-47.39337 51.09375,-79.71875 32.36479,-4.70521 60.89435,-24.2083 79.4375,-50.6875 z M 400,473.875 c 2.75117,0.0442 5.50682,0.2592 8.28125,0.65625 39.72271,4.23024 74.22096,42.64505 69.6875,83.28125 -0.31628,6.6476 -0.8842,13.2822 -1.03125,19.9375 44.82362,-15.9846 97.84158,20.56625 101.3125,67.34375 0.23444,2.426 0.33242,4.85945 0.3125,7.28125 0.0199,2.42182 -0.0781,4.85529 -0.3125,7.28125 -3.47092,46.77749 -56.48888,83.32841 -101.3125,67.34375 0.14705,6.65537 0.71497,13.28996 1.03125,19.9375 4.53346,40.63628 -29.96479,79.05101 -69.6875,83.28125 -2.77443,0.39705 -5.53008,0.61205 -8.28125,0.65625 -2.75117,-0.0442 -5.50682,-0.2592 -8.28125,-0.65625 -39.72271,-4.23024 -74.22096,-42.64497 -69.6875,-83.28125 0.31628,-6.64754 0.8842,-13.28213 1.03125,-19.9375 -44.82362,15.98466 -97.84158,-20.56626 -101.3125,-67.34375 -0.23444,-2.42596 -0.33242,-4.85943 -0.3125,-7.28125 -0.0199,-2.4218 0.0781,-4.85525 0.3125,-7.28125 3.47092,-46.7775 56.48888,-83.32845 101.3125,-67.34375 -0.14705,-6.6554 -0.71497,-13.29 -1.03125,-19.9375 -4.53346,-40.6363 29.96479,-79.05101 69.6875,-83.28125 2.77443,-0.39705 5.53008,-0.61205 8.28125,-0.65625 z M 200,721.96875 c 18.54315,26.4792 47.07271,45.98229 79.4375,50.6875 5.03654,32.32538 24.61164,61.03912 51.09375,79.71875 -26.48211,18.67963 -46.05721,47.39337 -51.09375,79.71875 -32.36479,4.70521 -60.89435,24.2083 -79.4375,50.6875 -18.54315,-26.4792 -47.07271,-45.98229 -79.4375,-50.6875 -5.03654,-32.32538 -24.611642,-61.03912 -51.09375,-79.71875 26.482108,-18.67963 46.05721,-47.39337 51.09375,-79.71875 32.36479,-4.70521 60.89435,-24.2083 79.4375,-50.6875 z m 400,0 c 18.54315,26.4792 47.07271,45.98229 79.4375,50.6875 5.03654,32.32538 24.61164,61.03912 51.09375,79.71875 -26.48211,18.67963 -46.05721,47.39337 -51.09375,79.71875 -32.36479,4.70521 -60.89435,24.2083 -79.4375,50.6875 -18.54315,-26.4792 -47.07271,-45.98229 -79.4375,-50.6875 -5.03654,-32.32538 -24.61164,-61.03912 -51.09375,-79.71875 26.48211,-18.67963 46.05721,-47.39337 51.09375,-79.71875 32.36479,-4.70521 60.89435,-24.2083 79.4375,-50.6875 z"
       id="rect4772"
       inkscape:connector-curvature="0" />
  </g>
</svg>
